<svg width="45" height="45" viewBox="0 0 45 45" fill="none" xmlns="http://www.w3.org/2000/svg">
    <path d="M22.5 0C18.0499 0 13.6998 1.3196 9.99968 3.79193C6.29957 6.26426 3.41569 9.77828 1.71272 13.8896C0.00974889 18.001 -0.435826 22.525 0.432341 26.8895C1.30051 31.2541 3.44343 35.2632 6.59011 38.4099C9.73679 41.5566 13.7459 43.6995 18.1105 44.5677C22.475 45.4358 26.999 44.9903 31.1104 43.2873C35.2217 41.5843 38.7357 38.7004 41.2081 35.0003C43.6804 31.3002 45 26.9501 45 22.5C45 19.5453 44.418 16.6194 43.2873 13.8896C42.1566 11.1598 40.4992 8.67941 38.4099 6.5901C36.3206 4.50078 33.8402 2.84344 31.1104 1.71271C28.3806 0.58198 25.4547 0 22.5 0V0ZM22.5 40.5C18.9399 40.5 15.4598 39.4443 12.4997 37.4664C9.53966 35.4886 7.23255 32.6774 5.87018 29.3883C4.5078 26.0992 4.15134 22.48 4.84587 18.9884C5.54041 15.4967 7.25474 12.2894 9.77209 9.77208C12.2894 7.25473 15.4967 5.5404 18.9884 4.84586C22.48 4.15133 26.0992 4.50779 29.3883 5.87017C32.6774 7.23254 35.4886 9.53965 37.4665 12.4997C39.4443 15.4598 40.5 18.9399 40.5 22.5C40.5 27.2739 38.6036 31.8523 35.2279 35.2279C31.8523 38.6036 27.2739 40.5 22.5 40.5V40.5Z"
          fill="#193669"/>
    <path d="M28.5752 14.3774L20.0702 25.6274L16.4027 20.8799C16.221 20.6465 15.995 20.4511 15.7378 20.305C15.4806 20.1589 15.1971 20.0649 14.9036 20.0283C14.61 19.9918 14.3122 20.0134 14.027 20.0919C13.7418 20.1705 13.4748 20.3044 13.2414 20.4862C13.008 20.6679 12.8127 20.8938 12.6665 21.151C12.5204 21.4082 12.4264 21.6917 12.3898 21.9852C12.3533 22.2788 12.3749 22.5767 12.4534 22.8619C12.532 23.1471 12.666 23.414 12.8477 23.6474L18.3152 30.6449C18.5271 30.9131 18.7973 31.1294 19.1052 31.2776C19.4132 31.4257 19.7509 31.5017 20.0927 31.4999C20.4363 31.4991 20.7751 31.4196 21.0833 31.2675C21.3914 31.1153 21.6606 30.8947 21.8702 30.6224L32.1527 17.1224C32.5167 16.645 32.6761 16.0426 32.596 15.4476C32.5158 14.8527 32.2026 14.3139 31.7252 13.9499C31.2478 13.5859 30.6453 13.4264 30.0504 13.5066C29.4554 13.5868 28.9167 13.9 28.5527 14.3774H28.5752Z"
          fill="#193669"/>
</svg>
