<svg width="20" height="20" viewBox="0 0 20 20" fill="none" xmlns="http://www.w3.org/2000/svg">
<path d="M19.91 15.9392L19.8105 15.6392C19.5747 14.9384 18.8019 14.2076 18.092 14.015L15.4644 13.2972C14.7518 13.1034 13.7354 13.364 13.2141 13.8853L12.2631 14.8363C8.80707 13.9024 6.09701 11.1923 5.16441 7.73693L6.11542 6.78592C6.63675 6.26458 6.89738 5.24948 6.70352 4.53693L5.98703 1.90806C5.79317 1.1968 5.06096 0.424016 4.36152 0.190843L4.06158 0.089995C3.3608 -0.143178 2.36138 0.0926356 1.84008 0.613933L0.417572 2.03774C0.163441 2.29053 0.00102071 3.01357 0.00102071 3.01621C-0.0487324 7.53255 1.72218 11.8838 4.91686 15.0786C8.1037 18.2654 12.4387 20.0337 16.9419 19.9957C16.9655 19.9957 17.7094 19.8359 17.9636 19.5831L19.3861 18.1606C19.9074 17.6393 20.1432 16.6399 19.91 15.9392Z" fill="black"/>
</svg>
